<svg xmlns="http://www.w3.org/2000/svg" viewBox="0 0 1400 720"><svg xmlns="http://www.w3.org/2000/svg" viewBox="0 0 1400 700"><?xml version="1.0" encoding="UTF-8"?><svg xmlns="http://www.w3.org/2000/svg" viewBox="0 0 1400 700">

  <defs>

    <style>  <defs>

      .title { font: bold 24px sans-serif; fill: #1F2937; }

      .subtitle { font: 14px sans-serif; fill: #6B7280; }    <style><svg xmlns="http://www.w3.org/2000/svg" viewBox="0 0 1400 700">  <!-- CI/CD Deployment Pipeline -->

      .box-title { font: bold 14px sans-serif; }

      .box-text { font: 12px sans-serif; fill: #374151; }      .title { font: bold 28px sans-serif; fill: #1F2937; }

      .small-text { font: 11px sans-serif; fill: #6B7280; }

    </style>      .subtitle { font: 16px sans-serif; fill: #6B7280; }  <defs>  <defs>

  </defs>

        .stage-title { font: bold 16px sans-serif; }

  <text x="700" y="30" text-anchor="middle" class="title">CI/CD Deployment Pipeline</text>

  <text x="700" y="50" text-anchor="middle" class="subtitle">Automated Build and Deploy with GitHub Actions</text>      .stage-text { font: 13px sans-serif; fill: #374151; }    <style>    <style>

  

  <rect x="50" y="80" width="160" height="120" rx="6" fill="#EEF2FF" stroke="#4F46E5" stroke-width="2"/>      .label { font: 12px sans-serif; fill: #6B7280; }

  <circle cx="130" cy="95" r="12" fill="#4F46E5"/>

  <text x="130" y="101" text-anchor="middle" fill="white" font-weight="bold" font-size="14">1</text>    </style>      .title { font: bold 28px sans-serif; fill: #1F2937; }      .title { font: bold 28px sans-serif; fill: #1F2937; }

  <text x="130" y="125" text-anchor="middle" class="box-title" fill="#4F46E5">Git Push</text>

  <text x="130" y="145" text-anchor="middle" class="box-text">Developer pushes</text>    <marker id="arrow" markerWidth="10" markerHeight="10" refX="9" refY="3" orient="auto">

  <text x="130" y="165" text-anchor="middle" class="box-text">code to branch</text>

  <text x="130" y="185" text-anchor="middle" class="small-text">git push origin main</text>      <polygon points="0 0, 10 3, 0 6" fill="#6B7280"/>      .subtitle { font: 16px sans-serif; fill: #6B7280; }      .subtitle { font: 16px sans-serif; fill: #6B7280; }

  

  <line x1="210" y1="140" x2="250" y2="140" stroke="#6B7280" stroke-width="2"/>    </marker>

  <polygon points="250,140 245,137 245,143" fill="#6B7280"/>

      <marker id="arrow-success" markerWidth="10" markerHeight="10" refX="9" refY="3" orient="auto">      .stage-title { font: bold 16px sans-serif; fill: #FFFFFF; }      .stage-title { font: bold 16px sans-serif; fill: #FFFFFF; }

  <rect x="250" y="80" width="180" height="120" rx="6" fill="#DBEAFE" stroke="#3B82F6" stroke-width="2"/>

  <circle cx="340" cy="95" r="12" fill="#3B82F6"/>      <polygon points="0 0, 10 3, 0 6" fill="#10B981"/>

  <text x="340" y="101" text-anchor="middle" fill="white" font-weight="bold" font-size="14">2</text>

  <text x="340" y="125" text-anchor="middle" class="box-title" fill="#3B82F6">CI Triggered</text>    </marker>      .stage-text { font: 13px sans-serif; fill: #374151; }      .stage-text { font: 13px sans-serif; fill: #374151; }

  <text x="340" y="145" text-anchor="middle" class="box-text">GitHub Actions</text>

  <text x="340" y="165" text-anchor="middle" class="box-text">workflow starts</text>    <marker id="arrow-fail" markerWidth="10" markerHeight="10" refX="9" refY="3" orient="auto">

  <text x="340" y="185" text-anchor="middle" class="small-text">on: push</text>

        <polygon points="0 0, 10 3, 0 6" fill="#EF4444"/>      .label { font: 12px sans-serif; fill: #6B7280; }      .label { font: 12px sans-serif; fill: #6B7280; }

  <line x1="430" y1="140" x2="470" y2="140" stroke="#6B7280" stroke-width="2"/>

  <polygon points="470,140 465,137 465,143" fill="#6B7280"/>    </marker>

  

  <rect x="470" y="80" width="180" height="120" rx="6" fill="#FEF3C7" stroke="#F59E0B" stroke-width="2"/>  </defs>      .status-text { font: bold 14px sans-serif; }      .status-text { font: bold 14px sans-serif; }

  <circle cx="560" cy="95" r="12" fill="#F59E0B"/>

  <text x="560" y="101" text-anchor="middle" fill="white" font-weight="bold" font-size="14">3</text>  

  <text x="560" y="125" text-anchor="middle" class="box-title" fill="#F59E0B">Install and Test</text>

  <text x="560" y="145" text-anchor="middle" class="box-text">npm ci</text>  <text x="700" y="40" text-anchor="middle" class="title">CI/CD Deployment Pipeline</text>    </style>    </style>

  <text x="560" y="165" text-anchor="middle" class="box-text">npm run lint</text>

  <text x="560" y="185" text-anchor="middle" class="box-text">npm test</text>  <text x="700" y="65" text-anchor="middle" class="subtitle">Automated Build, Test and Deploy with GitHub Actions</text>

  

  <line x1="650" y1="140" x2="690" y2="140" stroke="#6B7280" stroke-width="2"/>          

  <polygon points="690,140 685,137 685,143" fill="#6B7280"/>

    <!-- Stage 1: Git Push -->

  <polygon points="760,120 800,140 760,160 720,140" fill="#FEF3C7" stroke="#F59E0B" stroke-width="2"/>

  <text x="760" y="143" text-anchor="middle" class="box-text" font-weight="bold">Pass?</text>  <rect x="50" y="120" width="180" height="120" rx="8" fill="#EEF2FF" stroke="#4F46E5" stroke-width="3"/>    <marker id="arrow" markerWidth="10" markerHeight="10" refX="9" refY="3" orient="auto">    <marker id="arrow" markerWidth="10" markerHeight="10" refX="9" refY="3" orient="auto">

  

  <line x1="760" y1="160" x2="760" y2="210" stroke="#EF4444" stroke-width="2"/>  <text x="140" y="165" text-anchor="middle" class="stage-title" fill="#4F46E5">1. Git Push</text>

  <polygon points="760,210 757,205 763,205" fill="#EF4444"/>

  <text x="775" y="190" class="small-text" fill="#EF4444">fail</text>  <text x="140" y="190" text-anchor="middle" class="stage-text">Developer pushes</text>      <polygon points="0 0, 10 3, 0 6" fill="#6B7280" />      <polygon points="0 0, 10 3, 0 6" fill="#6B7280" />

  

  <rect x="700" y="210" width="120" height="50" rx="6" fill="#FEE2E2" stroke="#EF4444" stroke-width="2"/>  <text x="140" y="210" text-anchor="middle" class="stage-text">code to branch</text>

  <text x="760" y="235" text-anchor="middle" class="box-text" fill="#EF4444" font-weight="bold">Fail</text>

  <text x="760" y="250" text-anchor="middle" class="small-text">Notify dev</text>      </marker>    </marker>

  

  <line x1="800" y1="140" x2="840" y2="140" stroke="#10B981" stroke-width="2"/>  <line x1="230" y1="180" x2="280" y2="180" stroke="#6B7280" stroke-width="3" marker-end="url(#arrow)"/>

  <polygon points="840,140 835,137 835,143" fill="#10B981"/>

  <text x="820" y="130" class="small-text" fill="#10B981">pass</text>          

  

  <rect x="840" y="80" width="180" height="120" rx="6" fill="#E0E7FF" stroke="#6366F1" stroke-width="2"/>  <!-- Stage 2: CI Triggered -->

  <circle cx="930" cy="95" r="12" fill="#6366F1"/>

  <text x="930" y="101" text-anchor="middle" fill="white" font-weight="bold" font-size="14">4</text>  <rect x="280" y="120" width="180" height="120" rx="8" fill="#DBEAFE" stroke="#3B82F6" stroke-width="3"/>    <marker id="arrow-success" markerWidth="10" markerHeight="10" refX="9" refY="3" orient="auto">    <marker id="arrow-success" markerWidth="10" markerHeight="10" refX="9" refY="3" orient="auto">

  <text x="930" y="125" text-anchor="middle" class="box-title" fill="#6366F1">EAS Build</text>

  <text x="930" y="145" text-anchor="middle" class="box-text">eas build</text>  <text x="370" y="165" text-anchor="middle" class="stage-title" fill="#3B82F6">2. CI Triggered</text>

  <text x="930" y="165" text-anchor="middle" class="box-text">platform all</text>

  <text x="930" y="185" text-anchor="middle" class="small-text">15-20 min</text>  <text x="370" y="190" text-anchor="middle" class="stage-text">GitHub Actions</text>      <polygon points="0 0, 10 3, 0 6" fill="#10B981" />      <polygon points="0 0, 10 3, 0 6" fill="#10B981" />

  

  <line x1="1020" y1="140" x2="1060" y2="140" stroke="#6B7280" stroke-width="2"/>  <text x="370" y="210" text-anchor="middle" class="stage-text">workflow starts</text>

  <polygon points="1060,140 1055,137 1055,143" fill="#6B7280"/>

        </marker>    </marker>

  <rect x="1060" y="80" width="180" height="120" rx="6" fill="#D1FAE5" stroke="#10B981" stroke-width="2"/>

  <circle cx="1150" cy="95" r="12" fill="#10B981"/>  <line x1="460" y1="180" x2="510" y2="180" stroke="#6B7280" stroke-width="3" marker-end="url(#arrow)"/>

  <text x="1150" y="101" text-anchor="middle" fill="white" font-weight="bold" font-size="14">5</text>

  <text x="1150" y="125" text-anchor="middle" class="box-title" fill="#10B981">Deploy</text>          

  <text x="1150" y="145" text-anchor="middle" class="box-text">eas update</text>

  <text x="1150" y="165" text-anchor="middle" class="box-text">branch production</text>  <!-- Stage 3: Install & Test -->

  <text x="1150" y="185" text-anchor="middle" class="small-text" fill="#10B981" font-weight="bold">Success</text>

    <rect x="510" y="120" width="180" height="120" rx="8" fill="#FEF3C7" stroke="#F59E0B" stroke-width="3"/>    <marker id="arrow-fail" markerWidth="10" markerHeight="10" refX="9" refY="3" orient="auto">    <marker id="arrow-fail" markerWidth="10" markerHeight="10" refX="9" refY="3" orient="auto">

  <text x="50" y="300" class="box-title" fill="#4F46E5">Alternative Workflows:</text>

    <text x="600" y="165" text-anchor="middle" class="stage-title" fill="#F59E0B">3. Install Test</text>

  <rect x="50" y="320" width="360" height="90" rx="6" fill="#F9FAFB" stroke="#E5E7EB" stroke-width="2"/>

  <text x="70" y="345" class="box-title" fill="#6366F1">Pull Request Flow</text>  <text x="600" y="185" text-anchor="middle" class="stage-text">npm ci cache</text>      <polygon points="0 0, 10 3, 0 6" fill="#EF4444" />      <polygon points="0 0, 10 3, 0 6" fill="#EF4444" />

  <text x="70" y="365" class="box-text">on: pull_request - Run tests only</text>

  <text x="70" y="385" class="box-text">No build, just validation</text>  <text x="600" y="205" text-anchor="middle" class="stage-text">npm run lint</text>

  <text x="70" y="400" class="box-text">Fast feedback for PRs</text>

    <text x="600" y="225" text-anchor="middle" class="stage-text">npm test</text>    </marker>    </marker>

  <rect x="440" y="320" width="360" height="90" rx="6" fill="#F9FAFB" stroke="#E5E7EB" stroke-width="2"/>

  <text x="460" y="345" class="box-title" fill="#F59E0B">Preview/Staging Flow</text>  

  <text x="460" y="365" class="box-text">on: push develop - Build preview</text>

  <text x="460" y="385" class="box-text">Internal testing builds</text>  <line x1="690" y1="180" x2="740" y2="180" stroke="#6B7280" stroke-width="3" marker-end="url(#arrow)"/>  </defs>  </defs>

  <text x="460" y="400" class="box-text">QA environment</text>

    

  <rect x="830" y="320" width="360" height="90" rx="6" fill="#F9FAFB" stroke="#E5E7EB" stroke-width="2"/>

  <text x="850" y="345" class="box-title" fill="#10B981">Scheduled Flow</text>  <!-- Decision Diamond -->    

  <text x="850" y="365" class="box-text">on: schedule cron - Nightly builds</text>

  <text x="850" y="385" class="box-text">Automated regression testing</text>  <polygon points="800,150 840,180 800,210 760,180" fill="#FEF3C7" stroke="#F59E0B" stroke-width="3"/>

  <text x="850" y="400" class="box-text">Latest dependency testing</text>

    <text x="800" y="190" text-anchor="middle" class="stage-text" font-weight="bold">Pass?</text>  <text x="700" y="40" text-anchor="middle" class="title">CI/CD Deployment Pipeline</text>  <!-- Title -->

  <rect x="50" y="440" width="420" height="110" rx="6" fill="#FEF3C7" stroke="#F59E0B" stroke-width="2"/>

  <text x="70" y="465" class="box-title" fill="#F59E0B">Performance: Caching</text>  

  <text x="70" y="485" class="box-text" font-family="monospace">uses: actions/setup-node@v3</text>

  <text x="70" y="505" class="box-text" font-family="monospace">with:</text>  <!-- Fail Path -->  <text x="700" y="65" text-anchor="middle" class="subtitle">Automated Build, Test and Deploy with GitHub Actions</text>  <text x="700" y="40" text-anchor="middle" class="title">CI/CD Deployment Pipeline</text>

  <text x="90" y="525" class="box-text" font-family="monospace">node-version: 18</text>

  <text x="90" y="540" class="box-text" font-family="monospace">cache: npm</text>  <line x1="800" y1="210" x2="800" y2="260" stroke="#EF4444" stroke-width="3" marker-end="url(#arrow-fail)"/>

  

  <rect x="500" y="440" width="420" height="110" rx="6" fill="#FEE2E2" stroke="#EF4444" stroke-width="2"/>  <rect x="740" y="260" width="120" height="50" rx="8" fill="#FEE2E2" stroke="#EF4444" stroke-width="2"/>    <text x="700" y="65" text-anchor="middle" class="subtitle">Automated Build, Test and Deploy with GitHub Actions</text>

  <text x="520" y="465" class="box-title" fill="#EF4444">Security: Secrets</text>

  <text x="520" y="485" class="box-text">GitHub Settings - Secrets - Actions</text>  <text x="800" y="290" text-anchor="middle" class="stage-text" fill="#EF4444" font-weight="bold">FAIL</text>

  <text x="520" y="505" class="box-text">Required:</text>

  <text x="520" y="525" class="box-text">EXPO_TOKEN from eas whoami</text>    <g id="stage-1">  

  <text x="520" y="540" class="box-text">API_KEYS if needed</text>

    <!-- Success Path -->

  <rect x="950" y="440" width="300" height="110" rx="6" fill="#D1FAE5" stroke="#10B981" stroke-width="2"/>

  <text x="970" y="465" class="box-title" fill="#10B981">CI/CD Benefits</text>  <line x1="840" y1="180" x2="890" y2="180" stroke="#10B981" stroke-width="3" marker-end="url(#arrow-success)"/>    <rect x="50" y="120" width="180" height="140" rx="8" fill="#EEF2FF" stroke="#4F46E5" stroke-width="3"/>  <!-- Stage 1: Code Push -->

  <text x="970" y="485" class="box-text">Automated quality checks</text>

  <text x="970" y="505" class="box-text">Faster deployments</text>  

  <text x="970" y="525" class="box-text">Consistent builds</text>

  <text x="970" y="540" class="box-text">Reduced human error</text>  <!-- Stage 4: EAS Build -->    <circle cx="140" cy="140" r="15" fill="#4F46E5"/>  <g id="stage-1">

  

  <rect x="50" y="580" width="1200" height="100" rx="6" fill="#F0F9FF" stroke="#3B82F6" stroke-width="2"/>  <rect x="890" y="120" width="180" height="120" rx="8" fill="#E0E7FF" stroke="#6366F1" stroke-width="3"/>

  <text x="700" y="610" text-anchor="middle" class="box-title" fill="#3B82F6">Example GitHub Actions Workflow</text>

  <text x="700" y="635" text-anchor="middle" class="box-text" font-family="monospace">name: Deploy | on: push: branches: [main] | jobs: build: runs-on: ubuntu-latest</text>  <text x="980" y="165" text-anchor="middle" class="stage-title" fill="#6366F1">4. EAS Build</text>    <text x="140" y="148" text-anchor="middle" class="stage-title">1</text>    <rect x="50" y="120" width="180" height="140" rx="8" fill="#EEF2FF" stroke="#4F46E5" stroke-width="3"/>

  <text x="700" y="655" text-anchor="middle" class="box-text" font-family="monospace">steps: - checkout - setup-node - npm ci - npm test - eas build - eas update</text>

    <text x="980" y="185" text-anchor="middle" class="stage-text">eas build</text>

  <text x="700" y="705" text-anchor="middle" class="small-text">Full pipeline: 20-30 min | With cache: 10-15 min</text>

</svg>  <text x="980" y="205" text-anchor="middle" class="stage-text">platform all</text>    <text x="140" y="175" text-anchor="middle" class="stage-title" fill="#4F46E5">Git Push</text>    <circle cx="140" cy="140" r="15" fill="#4F46E5"/>


  <text x="980" y="225" text-anchor="middle" class="label">15-20 min</text>

      <text x="140" y="200" text-anchor="middle" class="stage-text">Developer pushes</text>    <text x="140" y="148" text-anchor="middle" class="stage-title">1</text>

  <line x1="1070" y1="180" x2="1120" y2="180" stroke="#6B7280" stroke-width="3" marker-end="url(#arrow)"/>

      <text x="140" y="220" text-anchor="middle" class="stage-text">code to branch</text>    

  <!-- Stage 5: Deploy -->

  <rect x="1120" y="120" width="180" height="120" rx="8" fill="#D1FAE5" stroke="#10B981" stroke-width="3"/>    <text x="140" y="245" text-anchor="middle" class="label">git push origin main</text>    <text x="140" y="175" text-anchor="middle" class="stage-title" fill="#4F46E5">Git Push</text>

  <text x="1210" y="165" text-anchor="middle" class="stage-title" fill="#10B981">5. Deploy</text>

  <text x="1210" y="190" text-anchor="middle" class="stage-text">eas update</text>  </g>    <text x="140" y="200" text-anchor="middle" class="stage-text">Developer pushes</text>

  <text x="1210" y="210" text-anchor="middle" class="stage-text" fill="#10B981" font-weight="bold">SUCCESS</text>

        <text x="140" y="220" text-anchor="middle" class="stage-text">code to branch</text>

  <!-- Alternative Workflows -->

  <text x="50" y="370" class="subtitle" font-weight="bold">Alternative Workflows:</text>  <line x1="230" y1="190" x2="280" y2="190" stroke="#6B7280" stroke-width="3" marker-end="url(#arrow)"/>    <text x="140" y="245" text-anchor="middle" class="label">$ git push origin main</text>

  

  <rect x="50" y="390" width="350" height="90" rx="8" fill="#F9FAFB" stroke="#E5E7EB" stroke-width="2"/>  <text x="255" y="180" text-anchor="middle" class="label">trigger</text>  </g>

  <text x="70" y="415" class="stage-title" fill="#6366F1">Pull Request Flow</text>

  <text x="70" y="440" class="stage-text">on: pull_request</text>    

  <text x="70" y="460" class="stage-text">Run tests only, no build</text>

    <g id="stage-2">  <line x1="230" y1="190" x2="280" y2="190" stroke="#6B7280" stroke-width="3" marker-end="url(#arrow)"/>

  <rect x="430" y="390" width="350" height="90" rx="8" fill="#F9FAFB" stroke="#E5E7EB" stroke-width="2"/>

  <text x="450" y="415" class="stage-title" fill="#F59E0B">Preview Staging</text>    <rect x="280" y="120" width="200" height="140" rx="8" fill="#DBEAFE" stroke="#3B82F6" stroke-width="3"/>  <text x="255" y="180" text-anchor="middle" class="label">trigger</text>

  <text x="450" y="440" class="stage-text">on: push develop</text>

  <text x="450" y="460" class="stage-text">Internal testing builds</text>    <circle cx="380" cy="140" r="15" fill="#3B82F6"/>  

  

  <rect x="810" y="390" width="350" height="90" rx="8" fill="#F9FAFB" stroke="#E5E7EB" stroke-width="2"/>    <text x="380" y="148" text-anchor="middle" class="stage-title">2</text>  <!-- Stage 2: CI Triggered -->

  <text x="830" y="415" class="stage-title" fill="#10B981">Scheduled Flow</text>

  <text x="830" y="440" class="stage-text">on: schedule cron</text>    <text x="380" y="175" text-anchor="middle" class="stage-title" fill="#3B82F6">CI Triggered</text>  <g id="stage-2">

  <text x="830" y="460" class="stage-text">Nightly builds</text>

      <text x="380" y="200" text-anchor="middle" class="stage-text">GitHub Actions</text>    <rect x="280" y="120" width="200" height="140" rx="8" fill="#DBEAFE" stroke="#3B82F6" stroke-width="3"/>

  <!-- Tips -->

  <rect x="50" y="520" width="400" height="100" rx="8" fill="#FEF3C7" stroke="#F59E0B" stroke-width="2"/>    <text x="380" y="220" text-anchor="middle" class="stage-text">workflow starts</text>    <circle cx="380" cy="140" r="15" fill="#3B82F6"/>

  <text x="70" y="545" class="stage-title" fill="#F59E0B">Performance: Caching</text>

  <text x="70" y="570" class="stage-text">actions/setup-node@v3</text>    <text x="380" y="245" text-anchor="middle" class="label">on: push: [main]</text>    <text x="380" y="148" text-anchor="middle" class="stage-title">2</text>

  <text x="70" y="590" class="stage-text">with cache: npm</text>

  <text x="70" y="610" class="stage-text" fill="#F59E0B" font-weight="bold">Bug 6 fix!</text>  </g>    

  

  <rect x="480" y="520" width="400" height="100" rx="8" fill="#FEE2E2" stroke="#EF4444" stroke-width="2"/>      <text x="380" y="175" text-anchor="middle" class="stage-title" fill="#3B82F6">CI Triggered</text>

  <text x="500" y="545" class="stage-title" fill="#EF4444">Security: Secrets</text>

  <text x="500" y="570" class="stage-text">GitHub Settings Secrets</text>  <line x1="480" y1="190" x2="530" y2="190" stroke="#6B7280" stroke-width="3" marker-end="url(#arrow)"/>    <text x="380" y="200" text-anchor="middle" class="stage-text">GitHub Actions</text>

  <text x="500" y="590" class="stage-text">EXPO_TOKEN required</text>

  <text x="500" y="610" class="stage-text">API_KEYS if needed</text>      <text x="380" y="220" text-anchor="middle" class="stage-text">workflow starts</text>

  

  <rect x="910" y="520" width="400" height="100" rx="8" fill="#D1FAE5" stroke="#10B981" stroke-width="2"/>  <g id="stage-3">    <text x="380" y="245" text-anchor="middle" class="label">on: push: [main]</text>

  <text x="930" y="545" class="stage-title" fill="#10B981">CI/CD Benefits</text>

  <text x="930" y="570" class="stage-text">Automated quality checks</text>    <rect x="530" y="120" width="200" height="140" rx="8" fill="#FEF3C7" stroke="#F59E0B" stroke-width="3"/>  </g>

  <text x="930" y="590" class="stage-text">Faster deployments</text>

  <text x="930" y="610" class="stage-text">Consistent builds</text>    <circle cx="630" cy="140" r="15" fill="#F59E0B"/>  

  

  <text x="700" y="680" text-anchor="middle" class="label">Full pipeline: 20-30 min | With cache: 10-15 min</text>    <text x="630" y="148" text-anchor="middle" class="stage-title">3</text>  <line x1="480" y1="190" x2="530" y2="190" stroke="#6B7280" stroke-width="3" marker-end="url(#arrow)"/>

</svg>

    <text x="630" y="175" text-anchor="middle" class="stage-title" fill="#F59E0B">Install and Test</text>  

    <text x="630" y="195" text-anchor="middle" class="stage-text">npm ci with cache</text>  <!-- Stage 3: Install & Test -->

    <text x="630" y="215" text-anchor="middle" class="stage-text">npm run lint</text>  <g id="stage-3">

    <text x="630" y="235" text-anchor="middle" class="stage-text">npm test coverage</text>    <rect x="530" y="120" width="200" height="140" rx="8" fill="#FEF3C7" stroke="#F59E0B" stroke-width="3"/>

  </g>    <circle cx="630" cy="140" r="15" fill="#F59E0B"/>

      <text x="630" y="148" text-anchor="middle" class="stage-title">3</text>

  <polygon points="830,150 880,190 830,230 780,190" fill="#FEF3C7" stroke="#F59E0B" stroke-width="3"/>    

  <text x="830" y="198" text-anchor="middle" class="stage-text" font-weight="bold">Tests</text>    <text x="630" y="175" text-anchor="middle" class="stage-title" fill="#F59E0B">Install & Test</text>

  <text x="830" y="213" text-anchor="middle" class="stage-text" font-weight="bold">Pass?</text>    <text x="630" y="195" text-anchor="middle" class="stage-text">npm ci (with cache)</text>

      <text x="630" y="215" text-anchor="middle" class="stage-text">npm run lint</text>

  <line x1="730" y1="190" x2="780" y2="190" stroke="#6B7280" stroke-width="3" marker-end="url(#arrow)"/>    <text x="630" y="235" text-anchor="middle" class="stage-text">npm test --coverage</text>

    </g>

  <line x1="830" y1="230" x2="830" y2="280" stroke="#EF4444" stroke-width="3" marker-end="url(#arrow-fail)"/>  

  <text x="845" y="260" class="label" fill="#EF4444">fail</text>  <!-- Decision: Tests Pass? -->

    <polygon points="830,150 880,190 830,230 780,190" fill="#FEF3C7" stroke="#F59E0B" stroke-width="3"/>

  <rect x="760" y="280" width="140" height="60" rx="8" fill="#FEE2E2" stroke="#EF4444" stroke-width="3"/>  <text x="830" y="198" text-anchor="middle" class="stage-text" font-weight="bold">Tests</text>

  <text x="830" y="308" text-anchor="middle" class="status-text" fill="#EF4444">Fail</text>  <text x="830" y="213" text-anchor="middle" class="stage-text" font-weight="bold">Pass?</text>

  <text x="830" y="328" text-anchor="middle" class="stage-text">Notify developer</text>  

    <line x1="730" y1="190" x2="780" y2="190" stroke="#6B7280" stroke-width="3" marker-end="url(#arrow)"/>

  <line x1="880" y1="190" x2="930" y2="190" stroke="#10B981" stroke-width="3" marker-end="url(#arrow-success)"/>  

  <text x="905" y="180" class="label" fill="#10B981">pass</text>  <!-- Fail Path -->

    <line x1="830" y1="230" x2="830" y2="280" stroke="#EF4444" stroke-width="3" marker-end="url(#arrow-fail)"/>

  <g id="stage-4">  <text x="845" y="260" class="label" fill="#EF4444">fail</text>

    <rect x="930" y="120" width="200" height="140" rx="8" fill="#E0E7FF" stroke="#6366F1" stroke-width="3"/>  

    <circle cx="1030" cy="140" r="15" fill="#6366F1"/>  <rect x="760" y="280" width="140" height="60" rx="8" fill="#FEE2E2" stroke="#EF4444" stroke-width="3"/>

    <text x="1030" y="148" text-anchor="middle" class="stage-title">4</text>  <text x="830" y="308" text-anchor="middle" class="status-text" fill="#EF4444">❌ Fail</text>

    <text x="1030" y="175" text-anchor="middle" class="stage-title" fill="#6366F1">EAS Build</text>  <text x="830" y="328" text-anchor="middle" class="stage-text">Notify developer</text>

    <text x="1030" y="195" text-anchor="middle" class="stage-text">eas build platform all</text>  

    <text x="1030" y="215" text-anchor="middle" class="stage-text">profile production</text>  <!-- Success Path -->

    <text x="1030" y="235" text-anchor="middle" class="stage-text">non-interactive</text>  <line x1="880" y1="190" x2="930" y2="190" stroke="#10B981" stroke-width="3" marker-end="url(#arrow-success)"/>

    <text x="1030" y="255" text-anchor="middle" class="label">15-20 min</text>  <text x="905" y="180" class="label" fill="#10B981">pass ✓</text>

  </g>  

    <!-- Stage 4: Build -->

  <line x1="1130" y1="190" x2="1180" y2="190" stroke="#6B7280" stroke-width="3" marker-end="url(#arrow)"/>  <g id="stage-4">

      <rect x="930" y="120" width="200" height="140" rx="8" fill="#E0E7FF" stroke="#6366F1" stroke-width="3"/>

  <g id="stage-5">    <circle cx="1030" cy="140" r="15" fill="#6366F1"/>

    <rect x="1180" y="120" width="190" height="140" rx="8" fill="#D1FAE5" stroke="#10B981" stroke-width="3"/>    <text x="1030" y="148" text-anchor="middle" class="stage-title">4</text>

    <circle cx="1275" cy="140" r="15" fill="#10B981"/>    

    <text x="1275" y="148" text-anchor="middle" class="stage-title">5</text>    <text x="1030" y="175" text-anchor="middle" class="stage-title" fill="#6366F1">EAS Build</text>

    <text x="1275" y="175" text-anchor="middle" class="stage-title" fill="#10B981">Deploy</text>    <text x="1030" y="195" text-anchor="middle" class="stage-text">eas build --platform all</text>

    <text x="1275" y="195" text-anchor="middle" class="stage-text">eas update</text>    <text x="1030" y="215" text-anchor="middle" class="stage-text">--profile production</text>

    <text x="1275" y="215" text-anchor="middle" class="stage-text">branch production</text>    <text x="1030" y="235" text-anchor="middle" class="stage-text">--non-interactive</text>

    <text x="1275" y="240" text-anchor="middle" class="status-text" fill="#10B981">Success</text>    <text x="1030" y="255" text-anchor="middle" class="label">⏱️ ~15-20 min</text>

  </g>  </g>

    

  <g id="alternative-flows">  <line x1="1130" y1="190" x2="1180" y2="190" stroke="#6B7280" stroke-width="3" marker-end="url(#arrow)"/>

    <text x="50" y="400" class="subtitle" font-weight="bold">Alternative Workflows:</text>  

      <!-- Stage 5: Deploy -->

    <rect x="50" y="420" width="400" height="100" rx="8" fill="#F9FAFB" stroke="#E5E7EB" stroke-width="2"/>  <g id="stage-5">

    <text x="70" y="445" class="stage-title" fill="#6366F1">Pull Request Flow</text>    <rect x="1180" y="120" width="190" height="140" rx="8" fill="#D1FAE5" stroke="#10B981" stroke-width="3"/>

    <text x="70" y="470" class="stage-text">on: pull_request - Run tests only</text>    <circle cx="1275" cy="140" r="15" fill="#10B981"/>

    <text x="70" y="490" class="stage-text">No build, just validation</text>    <text x="1275" y="148" text-anchor="middle" class="stage-title">5</text>

    <text x="70" y="510" class="stage-text">Fast feedback for PRs</text>    

        <text x="1275" y="175" text-anchor="middle" class="stage-title" fill="#10B981">Deploy</text>

    <rect x="480" y="420" width="400" height="100" rx="8" fill="#F9FAFB" stroke="#E5E7EB" stroke-width="2"/>    <text x="1275" y="195" text-anchor="middle" class="stage-text">eas update</text>

    <text x="500" y="445" class="stage-title" fill="#F59E0B">Preview Staging Flow</text>    <text x="1275" y="215" text-anchor="middle" class="stage-text">--branch production</text>

    <text x="500" y="470" class="stage-text">on: push: develop - Build preview</text>    <text x="1275" y="240" text-anchor="middle" class="status-text" fill="#10B981">✓ Success</text>

    <text x="500" y="490" class="stage-text">Internal testing builds</text>  </g>

    <text x="500" y="510" class="stage-text">QA environment</text>  

      <!-- Alternative Flows -->

    <rect x="910" y="420" width="400" height="100" rx="8" fill="#F9FAFB" stroke="#E5E7EB" stroke-width="2"/>  <g id="alternative-flows">

    <text x="930" y="445" class="stage-title" fill="#10B981">Scheduled Flow</text>    <text x="50" y="400" class="subtitle" font-weight="bold">Alternative Workflows:</text>

    <text x="930" y="470" class="stage-text">on: schedule: cron - Nightly builds</text>    

    <text x="930" y="490" class="stage-text">Automated regression testing</text>    <!-- PR Flow -->

    <text x="930" y="510" class="stage-text">Latest dependency testing</text>    <rect x="50" y="420" width="400" height="100" rx="8" fill="#F9FAFB" stroke="#E5E7EB" stroke-width="2"/>

  </g>    <text x="70" y="445" class="stage-title" fill="#6366F1">📋 Pull Request Flow</text>

      <text x="70" y="470" class="stage-text">on: pull_request - Run tests only</text>

  <g id="cache-note">    <text x="70" y="490" class="stage-text">✓ No build, just validation</text>

    <rect x="50" y="550" width="450" height="120" rx="8" fill="#FEF3C7" stroke="#F59E0B" stroke-width="2"/>    <text x="70" y="510" class="stage-text">✓ Fast feedback for PRs</text>

    <text x="70" y="575" class="stage-title" fill="#F59E0B">Performance Tip: Caching</text>    

    <text x="70" y="600" class="stage-text" font-family="monospace">- uses: actions/setup-node@v3</text>    <!-- Preview Flow -->

    <text x="70" y="620" class="stage-text" font-family="monospace">  with:</text>    <rect x="480" y="420" width="400" height="100" rx="8" fill="#F9FAFB" stroke="#E5E7EB" stroke-width="2"/>

    <text x="70" y="640" class="stage-text" font-family="monospace">    node-version: 18</text>    <text x="500" y="445" class="stage-title" fill="#F59E0B">🔍 Preview/Staging Flow</text>

    <text x="70" y="660" class="stage-text" font-family="monospace">    cache: npm</text>    <text x="500" y="470" class="stage-text">on: push: [develop] - Build preview</text>

    <text x="250" y="660" class="stage-text" fill="#F59E0B" font-weight="bold">Bug 6 fix</text>    <text x="500" y="490" class="stage-text">✓ Internal testing builds</text>

  </g>    <text x="500" y="510" class="stage-text">✓ QA environment</text>

      

  <g id="secrets-note">    <!-- Scheduled Flow -->

    <rect x="530" y="550" width="450" height="120" rx="8" fill="#FEE2E2" stroke="#EF4444" stroke-width="2"/>    <rect x="910" y="420" width="400" height="100" rx="8" fill="#F9FAFB" stroke="#E5E7EB" stroke-width="2"/>

    <text x="550" y="575" class="stage-title" fill="#EF4444">Security: Secrets Management</text>    <text x="930" y="445" class="stage-title" fill="#10B981">⏰ Scheduled Flow</text>

    <text x="550" y="600" class="stage-text">GitHub Settings - Secrets - Actions</text>    <text x="930" y="470" class="stage-text">on: schedule: cron - Nightly builds</text>

    <text x="550" y="620" class="stage-text">Required secrets:</text>    <text x="930" y="490" class="stage-text">✓ Automated regression testing</text>

    <text x="550" y="640" class="stage-text">EXPO_TOKEN from eas whoami</text>    <text x="930" y="510" class="stage-text">✓ Latest dependency testing</text>

    <text x="550" y="660" class="stage-text">API_KEYS if needed</text>  </g>

  </g>  

    <!-- Cache Optimization Note -->

  <g id="benefits">  <g id="cache-note">

    <rect x="1010" y="550" width="360" height="120" rx="8" fill="#D1FAE5" stroke="#10B981" stroke-width="2"/>    <rect x="50" y="550" width="450" height="120" rx="8" fill="#FEF3C7" stroke="#F59E0B" stroke-width="2"/>

    <text x="1030" y="575" class="stage-title" fill="#10B981">CI/CD Benefits</text>    <text x="70" y="575" class="stage-title" fill="#F59E0B">⚡ Performance Tip: Caching</text>

    <text x="1030" y="600" class="stage-text">Automated quality checks</text>    <text x="70" y="600" class="stage-text" font-family="monospace">- uses: actions/setup-node@v3</text>

    <text x="1030" y="620" class="stage-text">Faster deployments</text>    <text x="70" y="620" class="stage-text" font-family="monospace">  with:</text>

    <text x="1030" y="640" class="stage-text">Consistent builds</text>    <text x="70" y="640" class="stage-text" font-family="monospace">    node-version: 18</text>

    <text x="1030" y="660" class="stage-text">Reduced human error</text>    <text x="70" y="660" class="stage-text" font-family="monospace">    cache: 'npm'</text>

  </g>    <text x="250" y="660" class="stage-text" fill="#F59E0B" font-weight="bold">← Bug #6 fix!</text>

    </g>

  <text x="700" y="695" text-anchor="middle" class="label">Full pipeline: 20-30 min | With cache: 10-15 min</text>  

</svg>  <!-- Secrets Note -->

  <g id="secrets-note">
    <rect x="530" y="550" width="450" height="120" rx="8" fill="#FEE2E2" stroke="#EF4444" stroke-width="2"/>
    <text x="550" y="575" class="stage-title" fill="#EF4444">🔐 Security: Secrets Management</text>
    <text x="550" y="600" class="stage-text">GitHub Settings - Secrets - Actions</text>
    <text x="550" y="620" class="stage-text">Required secrets:</text>
    <text x="550" y="640" class="stage-text">• EXPO_TOKEN (from eas whoami)</text>
    <text x="550" y="660" class="stage-text">• API_KEYS (if needed)</text>
  </g>
  
  <!-- Benefits -->
  <g id="benefits">
    <rect x="1010" y="550" width="360" height="120" rx="8" fill="#D1FAE5" stroke="#10B981" stroke-width="2"/>
    <text x="1030" y="575" class="stage-title" fill="#10B981">✨ CI/CD Benefits</text>
    <text x="1030" y="600" class="stage-text">✓ Automated quality checks</text>
    <text x="1030" y="620" class="stage-text">✓ Faster deployments</text>
    <text x="1030" y="640" class="stage-text">✓ Consistent builds</text>
    <text x="1030" y="660" class="stage-text">✓ Reduced human error</text>
  </g>
  
  <!-- Footer -->
  <text x="700" y="695" text-anchor="middle" class="label">Full pipeline time: ~20-30 minutes | With cache: ~10-15 minutes</text>
</svg>
